PathFileType	4	(X/Y/Z) flx_0kg_3.trc																										
DataRate	CameraRate	NumFrames	NumMarkers	Units	OrigDataRate	OrigDataStartFrame	OrigNumFrames																					
100	100	39	9	mm	100	105	835																					
Frame#	Time	gu			centelbow			EpL			centpxt8			centijc7			ij			ts			aa			ai		
		X1	Y1	Z1	X2	Y2	Z2	X3	Y3	Z3	X4	Y4	Z4	X5	Y5	Z5	X6	Y6	Z6	X7	Y7	Z7	X8	Y8	Z8	X9	Y9	Z9  
104	1.04	-78.454	-18.869	165.017	-83.317	-262.22	206.744	-65.374	-254.147	232.285	-46.816	-153.158	-8.669	-46.816	31.938	-8.669	0	0	0	-138.151	21.041	52.987	-109.804	21.014	168.837	-150.721	-91.462	61.403
105	1.05	-78.549	-18.527	164.773	-81.096	-261.849	206.873	-63.286	-253.559	232.437	-46.816	-153.158	-8.669	-46.816	31.938	-8.669	0	0	0	-138.185	21.075	52.928	-109.805	21.198	168.77	-150.645	-91.43	61.466
106	1.06	-78.682	-18.547	164.939	-78.957	-261.823	207.38	-61.295	-253.324	232.978	-46.816	-153.158	-8.669	-46.816	31.938	-8.669	0	0	0	-138.235	21.164	52.768	-109.792	21.444	168.595	-150.559	-91.347	61.434
107	1.07	-78.745	-18.799	165.273	-76.703	-262.007	208.05	-59.194	-253.297	233.682	-46.816	-153.158	-8.669	-46.816	31.938	-8.669	0	0	0	-138.289	21.114	52.58	-109.77	21.571	168.387	-150.489	-91.399	61.397
108	1.08	-78.672	-18.888	165.296	-74.164	-261.995	208.456	-56.807	-253.062	234.115	-46.816	-153.158	-8.669	-46.816	31.938	-8.669	0	0	0	-138.36	20.95	52.483	-109.784	21.608	168.275	-150.453	-91.56	61.474
109	1.09	-78.516	-18.602	165.041	-71.418	-261.567	208.653	-54.226	-252.395	234.339	-46.816	-153.158	-8.669	-46.816	31.938	-8.669	0	0	0	-138.399	20.737	52.575	-109.817	21.613	168.364	-150.391	-91.769	61.755
110	1.1	-78.453	-18.2	164.932	-68.771	-260.982	209.065	-51.762	-251.566	234.785	-46.816	-153.158	-8.669	-46.816	31.938	-8.669	0	0	0	-138.42	20.456	52.811	-109.867	21.566	168.606	-150.311	-92.045	62.19
111	1.11	-78.604	-18.18	165.263	-66.443	-260.746	209.966	-49.629	-251.091	235.723	-46.816	-153.158	-8.669	-46.816	31.938	-8.669	0	0	0	-138.541	20.108	53.073	-110.018	21.463	168.872	-150.317	-92.387	62.658
112	1.12	-78.731	-18.596	166.001	-64.153	-260.922	211.276	-47.534	-251.033	237.073	-46.816	-153.158	-8.669	-46.816	31.938	-8.669	0	0	0	-138.723	19.845	53.253	-110.217	21.447	169.053	-150.351	-92.648	63.04
113	1.13	-78.477	-18.959	166.712	-61.393	-261.021	212.52	-44.968	-250.9	238.35	-46.816	-153.158	-8.669	-46.816	31.938	-8.669	0	0	0	-138.786	19.903	53.249	-110.272	21.748	169.044	-150.228	-92.592	63.228
114	1.14	-77.952	-18.851	166.875	-58.173	-260.619	213.147	-41.936	-250.263	239.003	-46.816	-153.158	-8.669	-46.816	31.938	-8.669	0	0	0	-138.779	20.244	53.069	-110.222	22.312	168.849	-150.019	-92.256	63.219
115	1.15	-77.622	-18.338	166.487	-55.007	-259.78	213.167	-38.954	-249.189	239.043	-46.816	-153.158	-8.669	-46.816	31.938	-8.669	0	0	0	-138.889	20.484	52.904	-110.278	22.735	168.668	-149.963	-92.02	63.199
116	1.16	-77.692	-17.799	165.999	-52.223	-258.871	213.115	-36.356	-248.043	239.008	-46.816	-153.158	-8.669	-46.816	31.938	-8.669	0	0	0	-139.115	20.384	52.922	-110.464	22.785	168.672	-150.079	-92.118	63.34
117	1.17	-77.995	-17.459	165.753	-49.686	-258.113	213.381	-34.009	-247.044	239.287	-46.816	-153.158	-8.669	-46.816	31.938	-8.669	0	0	0	-139.388	20.099	53.06	-110.696	22.638	168.798	-150.262	-92.402	63.596
118	1.18	-78.187	-17.308	165.693	-46.993	-257.497	213.863	-31.507	-246.182	239.778	-46.816	-153.158	-8.669	-46.816	31.938	-8.669	0	0	0	-139.641	19.848	53.182	-110.885	22.538	168.9	-150.403	-92.651	63.843
119	1.19	-77.977	-17.288	165.645	-43.876	-256.975	214.344	-28.577	-245.418	240.264	-46.816	-153.158	-8.669	-46.816	31.938	-8.669	0	0	0	-139.702	19.72	53.275	-110.865	22.583	168.968	-150.33	-92.779	64.081
120	1.2	-77.503	-17.3	165.687	-40.528	-256.457	214.894	-25.415	-244.663	240.816	-46.816	-153.158	-8.669	-46.816	31.938	-8.669	0	0	0	-139.576	19.717	53.355	-110.627	22.774	169.016	-150.052	-92.78	64.325
121	1.21	-77.19	-17.186	165.954	-37.317	-255.78	215.626	-22.404	-243.756	241.558	-46.816	-153.158	-8.669	-46.816	31.938	-8.669	0	0	0	-139.52	19.731	53.393	-110.415	22.98	169.01	-149.837	-92.764	64.528
122	1.22	-77.159	-16.964	166.325	-34.313	-254.947	216.45	-19.608	-242.692	242.392	-46.816	-153.158	-8.669	-46.816	31.938	-8.669	0	0	0	-139.618	19.531	53.463	-110.338	22.951	169.03	-149.795	-92.962	64.75
123	1.23	-77.147	-16.839	166.618	-31.328	-254.154	217.277	-16.816	-241.66	243.214	-46.816	-153.158	-8.669	-46.816	31.938	-8.669	0	0	0	-139.731	19.035	53.68	-110.283	22.622	169.199	-149.809	-93.451	65.122
124	1.24	-76.922	-16.857	166.852	-28.192	-253.454	218.15	-13.843	-240.714	244.058	-46.816	-153.158	-8.669	-46.816	31.938	-8.669	0	0	0	-139.801	18.596	53.958	-110.165	22.377	169.423	-149.776	-93.88	65.585
125	1.25	-76.555	-16.884	167.132	-24.909	-252.72	219.078	-10.711	-239.731	244.946	-46.816	-153.158	-8.669	-46.816	31.938	-8.669	0	0	0	-139.847	18.639	54.122	-109.977	22.665	169.518	-149.654	-93.829	65.971
126	1.26	-76.247	-16.824	167.339	-21.564	-251.851	219.838	-7.524	-238.619	245.668	-46.816	-153.158	-8.669	-46.816	31.938	-8.669	0	0	0	-139.856	18.973	54.207	-109.738	23.275	169.529	-149.451	-93.487	66.298
127	1.27	-76.042	-16.685	167.302	-18.159	-250.847	220.241	-4.287	-237.374	246.037	-46.816	-153.158	-8.669	-46.816	31.938	-8.669	0	0	0	-139.866	18.957	54.378	-109.533	23.519	169.634	-149.281	-93.494	66.7
128	1.28	-75.818	-16.559	167.192	-14.64	-249.784	220.556	-0.948	-236.069	246.321	-46.816	-153.158	-8.669	-46.816	31.938	-8.669	0	0	0	-139.985	18.363	54.642	-109.47	23.164	169.84	-149.26	-94.075	67.181
129	1.29	-75.467	-16.516	167.249	-10.982	-248.733	221.116	2.514	-234.769	246.85	-46.816	-153.158	-8.669	-46.816	31.938	-8.669	0	0	0	-140.214	17.646	54.839	-109.513	22.719	169.976	-149.306	-94.78	67.616
130	1.3	-75.088	-16.547	167.357	-7.343	-247.702	221.784	5.949	-233.488	247.488	-46.816	-153.158	-8.669	-46.816	31.938	-8.669	0	0	0	-140.425	17.295	54.821	-109.511	22.706	169.886	-149.241	-95.122	67.879
131	1.31	-74.936	-16.495	167.262	-3.975	-246.558	222.217	9.117	-232.101	247.889	-46.816	-153.158	-8.669	-46.816	31.938	-8.669	0	0	0	-140.645	17.258	54.623	-109.492	23.051	169.605	-149.117	-95.149	67.989
132	1.32	-74.989	-16.082	166.845	-0.743	-244.999	222.244	12.156	-230.304	247.878	-46.816	-153.158	-8.669	-46.816	31.938	-8.669	0	0	0	-141.034	17.165	54.473	-109.654	23.337	169.373	-149.166	-95.23	68.141
133	1.33	-74.92	-15.358	166.253	2.72	-243.05	222.046	15.423	-228.116	247.64	-46.816	-153.158	-8.669	-46.816	31.938	-8.669	0	0	0	-141.51	16.834	54.546	-109.951	23.357	169.378	-149.357	-95.547	68.5
134	1.34	-74.681	-14.801	165.885	6.278	-241.223	222.129	18.768	-226.052	247.688	-46.816	-153.158	-8.669	-46.816	31.938	-8.669	0	0	0	-141.793	16.341	54.795	-110.092	23.192	169.568	-149.416	-96.021	69.023
135	1.35	-74.561	-14.621	165.913	9.524	-239.752	222.748	21.777	-224.349	248.283	-46.816	-153.158	-8.669	-46.816	31.938	-8.669	0	0	0	-141.83	15.819	55.071	-109.985	22.992	169.785	-149.253	-96.52	69.574
136	1.36	-74.57	-14.527	166.122	12.558	-238.317	223.664	24.549	-222.681	249.182	-46.816	-153.158	-8.669	-46.816	31.938	-8.669	0	0	0	-141.772	15.373	55.266	-109.76	22.881	169.912	-148.987	-96.943	70.059
137	1.37	-74.448	-14.329	166.36	15.733	-236.714	224.643	27.453	-220.844	250.142	-46.816	-153.158	-8.669	-46.816	31.938	-8.669	0	0	0	-141.685	15.117	55.348	-109.464	22.983	169.912	-148.665	-97.172	70.448
138	1.38	-74.17	-14.101	166.656	19.069	-235.039	225.625	30.525	-218.941	251.101	-46.816	-153.158	-8.669	-46.816	31.938	-8.669	0	0	0	-141.613	15.092	55.327	-109.138	23.321	169.793	-148.336	-97.171	70.735
139	1.39	-73.919	-13.781	166.915	22.426	-233.228	226.454	33.624	-216.912	251.906	-46.816	-153.158	-8.669	-46.816	31.938	-8.669	0	0	0	-141.708	15.091	55.214	-108.959	23.674	169.576	-148.177	-97.145	70.925
140	1.4	-73.728	-13.216	166.933	25.816	-231.094	226.972	36.755	-214.563	252.398	-46.816	-153.158	-8.669	-46.816	31.938	-8.669	0	0	0	-141.982	14.862	55.098	-108.984	23.8	169.361	-148.237	-97.342	71.122
141	1.41	-73.486	-12.594	166.737	29.229	-228.838	227.34	39.915	-212.087	252.729	-46.816	-153.158	-8.669	-46.816	31.938	-8.669	0	0	0	-142.209	14.436	55.117	-108.999	23.765	169.288	-148.28	-97.727	71.494
142	1.42	-73.213	-12.321	166.663	32.462	-226.939	227.95	42.913	-209.963	253.288	-46.816	-153.158	-8.669	-46.816	31.938	-8.669	0	0	0	-142.284	14.035	55.242	-108.858	23.812	169.311	-148.15	-98.08	72.02
